# xmcd
#
# Track frame offsets: 
#        150
#        17972
#        31117
#        43810
#        55480
#        68217
#        78085
#        92910
#        104980
#        122310
#        132437
#        147017
#
# Disc length: 2215 seconds
#
# Revision: 2
# Processed by: cddbd v1.5.2PL0 Copyright (c) Steve Scherf et al.
# Submitted via: ExactAudioCopy v0.99pb4
#
DISCID=a608a50c
DTITLE=A.J. Croce - That's Me In the Bar
DYEAR=1995
DGENRE=Blues
TTITLE0=That's Me in the Bar
TTITLE1=Sign on the Line
TTITLE2=She's Waiting for Me
TTITLE3=Checkin' In
TTITLE4=Music Box
TTITLE5=Callin'Home
TTITLE6=Night Out on the Town
TTITLE7=Pass Me By
TTITLE8=I Meant What I Said
TTITLE9=Maybe I'm to Blame
TTITLE10=I Confess
TTITLE11=Some People Call It Love
EXTD=
EXTT0=
EXTT1=
EXTT2=
EXTT3=
EXTT4=
EXTT5=
EXTT6=
EXTT7=
EXTT8=
EXTT9=
EXTT10=
EXTT11=
PLAYORDER=
